<mxfile host="app.diagrams.net" modified="2021-08-22T15:48:03.813Z" agent="5.0 (Windows NT 10.0; Win64; x64) AppleWebKit/537.36 (KHTML, like Gecko) Chrome/92.0.4515.107 Safari/537.36" etag="B-A-Sk0sfD29EqjIQYri" version="14.9.8" type="github">
  <diagram id="jNmoqXeFEh0ObimJBnkF" name="Page-1">
    <mxGraphModel dx="1264" dy="563" grid="0" gridSize="10" guides="1" tooltips="1" connect="1" arrows="1" fold="1" page="1" pageScale="1" pageWidth="827" pageHeight="1169" math="0" shadow="0">
      <root>
        <mxCell id="0" />
        <mxCell id="1" parent="0" />
        <mxCell id="e8W-_g6dRkkAk_Z5xhVP-2" value="IServiceManager" style="html=1;" parent="1" vertex="1">
          <mxGeometry x="162" y="410" width="110" height="50" as="geometry" />
        </mxCell>
        <mxCell id="e8W-_g6dRkkAk_Z5xhVP-3" value="«interface»&lt;br&gt;&lt;b&gt;IInterface&lt;/b&gt;" style="html=1;" parent="1" vertex="1">
          <mxGeometry x="162" y="284" width="110" height="50" as="geometry" />
        </mxCell>
        <mxCell id="e8W-_g6dRkkAk_Z5xhVP-4" value="Extends" style="endArrow=block;endSize=16;endFill=0;html=1;exitX=0.5;exitY=0;exitDx=0;exitDy=0;entryX=0.5;entryY=1;entryDx=0;entryDy=0;" parent="1" source="e8W-_g6dRkkAk_Z5xhVP-2" target="e8W-_g6dRkkAk_Z5xhVP-3" edge="1">
          <mxGeometry width="160" relative="1" as="geometry">
            <mxPoint x="151" y="822" as="sourcePoint" />
            <mxPoint x="227" y="392" as="targetPoint" />
          </mxGeometry>
        </mxCell>
        <mxCell id="e8W-_g6dRkkAk_Z5xhVP-10" value="ProcessState" style="html=1;" parent="1" vertex="1">
          <mxGeometry x="162" y="54" width="110" height="50" as="geometry" />
        </mxCell>
        <mxCell id="e8W-_g6dRkkAk_Z5xhVP-16" value="IBinder" style="html=1;" parent="1" vertex="1">
          <mxGeometry x="353" y="150" width="110" height="82" as="geometry" />
        </mxCell>
        <mxCell id="e8W-_g6dRkkAk_Z5xhVP-17" value="ServiceManagerShim" style="html=1;" parent="1" vertex="1">
          <mxGeometry x="162" y="536" width="126" height="50" as="geometry" />
        </mxCell>
        <mxCell id="e8W-_g6dRkkAk_Z5xhVP-18" value="Extends" style="endArrow=block;endSize=16;endFill=0;html=1;exitX=0.444;exitY=0;exitDx=0;exitDy=0;exitPerimeter=0;" parent="1" source="e8W-_g6dRkkAk_Z5xhVP-17" edge="1">
          <mxGeometry width="160" relative="1" as="geometry">
            <mxPoint x="227" y="533" as="sourcePoint" />
            <mxPoint x="219" y="462" as="targetPoint" />
          </mxGeometry>
        </mxCell>
        <mxCell id="e8W-_g6dRkkAk_Z5xhVP-19" value="RefBase" style="html=1;" parent="1" vertex="1">
          <mxGeometry x="162" y="170" width="110" height="50" as="geometry" />
        </mxCell>
        <mxCell id="e8W-_g6dRkkAk_Z5xhVP-20" value="Extends" style="endArrow=block;endSize=16;endFill=0;html=1;exitX=0.468;exitY=-0.025;exitDx=0;exitDy=0;exitPerimeter=0;entryX=0.464;entryY=0.998;entryDx=0;entryDy=0;entryPerimeter=0;" parent="1" source="e8W-_g6dRkkAk_Z5xhVP-3" target="e8W-_g6dRkkAk_Z5xhVP-19" edge="1">
          <mxGeometry width="160" relative="1" as="geometry">
            <mxPoint x="481.0039999999999" y="236" as="sourcePoint" />
            <mxPoint x="482.05999999999995" y="162" as="targetPoint" />
          </mxGeometry>
        </mxCell>
        <mxCell id="e8W-_g6dRkkAk_Z5xhVP-21" value="Extends" style="endArrow=block;endSize=16;endFill=0;html=1;exitX=-0.001;exitY=0.57;exitDx=0;exitDy=0;exitPerimeter=0;entryX=1;entryY=0.5;entryDx=0;entryDy=0;" parent="1" source="e8W-_g6dRkkAk_Z5xhVP-16" target="e8W-_g6dRkkAk_Z5xhVP-19" edge="1">
          <mxGeometry x="-0.3795" y="-9" width="160" relative="1" as="geometry">
            <mxPoint x="304.44" y="276.85" as="sourcePoint" />
            <mxPoint x="304.00000000000006" y="213.99999999999997" as="targetPoint" />
            <mxPoint as="offset" />
          </mxGeometry>
        </mxCell>
        <mxCell id="e8W-_g6dRkkAk_Z5xhVP-26" value="" style="endArrow=classic;html=1;entryX=1;entryY=0.5;entryDx=0;entryDy=0;exitX=0;exitY=0.5;exitDx=0;exitDy=0;" parent="1" source="e8W-_g6dRkkAk_Z5xhVP-34" target="e8W-_g6dRkkAk_Z5xhVP-16" edge="1">
          <mxGeometry width="50" height="50" relative="1" as="geometry">
            <mxPoint x="515" y="230" as="sourcePoint" />
            <mxPoint x="667" y="359" as="targetPoint" />
          </mxGeometry>
        </mxCell>
        <mxCell id="e8W-_g6dRkkAk_Z5xhVP-27" value="binder" style="edgeLabel;html=1;align=center;verticalAlign=middle;resizable=0;points=[];" parent="e8W-_g6dRkkAk_Z5xhVP-26" vertex="1" connectable="0">
          <mxGeometry x="0.3207" y="-2" relative="1" as="geometry">
            <mxPoint x="8" y="10" as="offset" />
          </mxGeometry>
        </mxCell>
        <mxCell id="e8W-_g6dRkkAk_Z5xhVP-28" value="Extends" style="endArrow=block;endSize=16;endFill=0;html=1;exitX=0.5;exitY=1;exitDx=0;exitDy=0;" parent="1" source="e8W-_g6dRkkAk_Z5xhVP-10" edge="1">
          <mxGeometry width="160" relative="1" as="geometry">
            <mxPoint x="223.48000000000002" y="292.75" as="sourcePoint" />
            <mxPoint x="215" y="173" as="targetPoint" />
          </mxGeometry>
        </mxCell>
        <mxCell id="e8W-_g6dRkkAk_Z5xhVP-29" value="" style="endArrow=diamondThin;endFill=0;endSize=24;html=1;exitX=0.5;exitY=0;exitDx=0;exitDy=0;entryX=1;entryY=0.5;entryDx=0;entryDy=0;" parent="1" source="e8W-_g6dRkkAk_Z5xhVP-30" target="e8W-_g6dRkkAk_Z5xhVP-10" edge="1">
          <mxGeometry width="160" relative="1" as="geometry">
            <mxPoint x="627.0319999999999" y="167.55500000000006" as="sourcePoint" />
            <mxPoint x="789" y="64" as="targetPoint" />
            <Array as="points">
              <mxPoint x="627" y="79" />
            </Array>
          </mxGeometry>
        </mxCell>
        <mxCell id="e8W-_g6dRkkAk_Z5xhVP-30" value="IPCThreadState" style="swimlane;fontStyle=1;align=center;verticalAlign=top;childLayout=stackLayout;horizontal=1;startSize=26;horizontalStack=0;resizeParent=1;resizeParentMax=0;resizeLast=0;collapsible=1;marginBottom=0;" parent="1" vertex="1">
          <mxGeometry x="510" y="165" width="237" height="86" as="geometry" />
        </mxCell>
        <mxCell id="e8W-_g6dRkkAk_Z5xhVP-31" value="Vector&lt;handle_entry&gt;mHandleToObject" style="text;strokeColor=none;fillColor=none;align=left;verticalAlign=top;spacingLeft=4;spacingRight=4;overflow=hidden;rotatable=0;points=[[0,0.5],[1,0.5]];portConstraint=eastwest;" parent="e8W-_g6dRkkAk_Z5xhVP-30" vertex="1">
          <mxGeometry y="26" width="237" height="26" as="geometry" />
        </mxCell>
        <mxCell id="e8W-_g6dRkkAk_Z5xhVP-34" value="struct handle_entry" style="text;fillColor=none;align=left;verticalAlign=top;spacingLeft=4;spacingRight=4;overflow=hidden;rotatable=0;points=[[0,0.5],[1,0.5]];portConstraint=eastwest;strokeColor=#000000;" parent="e8W-_g6dRkkAk_Z5xhVP-30" vertex="1">
          <mxGeometry y="52" width="237" height="26" as="geometry" />
        </mxCell>
        <mxCell id="e8W-_g6dRkkAk_Z5xhVP-32" value="" style="line;strokeWidth=1;fillColor=none;align=left;verticalAlign=middle;spacingTop=-1;spacingLeft=3;spacingRight=3;rotatable=0;labelPosition=right;points=[];portConstraint=eastwest;strokeColor=none;" parent="e8W-_g6dRkkAk_Z5xhVP-30" vertex="1">
          <mxGeometry y="78" width="237" height="8" as="geometry" />
        </mxCell>
        <mxCell id="e8W-_g6dRkkAk_Z5xhVP-35" value="BpBinder" style="html=1;strokeColor=#000000;" parent="1" vertex="1">
          <mxGeometry x="325" y="334" width="110" height="50" as="geometry" />
        </mxCell>
        <mxCell id="e8W-_g6dRkkAk_Z5xhVP-36" value="Extends" style="endArrow=block;endSize=16;endFill=0;html=1;entryX=0.464;entryY=0.998;entryDx=0;entryDy=0;entryPerimeter=0;exitX=0.473;exitY=0.02;exitDx=0;exitDy=0;exitPerimeter=0;" parent="1" source="e8W-_g6dRkkAk_Z5xhVP-35" edge="1">
          <mxGeometry width="160" relative="1" as="geometry">
            <mxPoint x="405" y="295" as="sourcePoint" />
            <mxPoint x="405.0000000000002" y="232.00000000000009" as="targetPoint" />
          </mxGeometry>
        </mxCell>
        <mxCell id="e8W-_g6dRkkAk_Z5xhVP-58" style="edgeStyle=orthogonalEdgeStyle;rounded=0;orthogonalLoop=1;jettySize=auto;html=1;entryX=0;entryY=0.5;entryDx=0;entryDy=0;" parent="1" target="7_N4U-T5mEk4jx83NKro-14" edge="1">
          <mxGeometry relative="1" as="geometry">
            <Array as="points">
              <mxPoint x="1152" y="371" />
              <mxPoint x="990" y="371" />
              <mxPoint x="990" y="206" />
            </Array>
            <mxPoint x="1152" y="371" as="sourcePoint" />
          </mxGeometry>
        </mxCell>
        <mxCell id="e8W-_g6dRkkAk_Z5xhVP-59" value="context" style="edgeLabel;html=1;align=center;verticalAlign=middle;resizable=0;points=[];" parent="e8W-_g6dRkkAk_Z5xhVP-58" vertex="1" connectable="0">
          <mxGeometry x="0.2331" y="-2" relative="1" as="geometry">
            <mxPoint x="2" y="-10" as="offset" />
          </mxGeometry>
        </mxCell>
        <mxCell id="7_N4U-T5mEk4jx83NKro-32" style="edgeStyle=orthogonalEdgeStyle;rounded=0;orthogonalLoop=1;jettySize=auto;html=1;entryX=0;entryY=0.5;entryDx=0;entryDy=0;exitX=0.5;exitY=0;exitDx=0;exitDy=0;" edge="1" parent="1" source="7_N4U-T5mEk4jx83NKro-43" target="7_N4U-T5mEk4jx83NKro-29">
          <mxGeometry relative="1" as="geometry">
            <mxPoint x="1236" y="306" as="sourcePoint" />
            <Array as="points">
              <mxPoint x="1229" y="346" />
              <mxPoint x="1229" y="325" />
            </Array>
          </mxGeometry>
        </mxCell>
        <mxCell id="7_N4U-T5mEk4jx83NKro-33" value="tsk" style="edgeLabel;html=1;align=center;verticalAlign=middle;resizable=0;points=[];" vertex="1" connectable="0" parent="7_N4U-T5mEk4jx83NKro-32">
          <mxGeometry x="-0.609" y="-2" relative="1" as="geometry">
            <mxPoint x="2" y="-10" as="offset" />
          </mxGeometry>
        </mxCell>
        <mxCell id="7_N4U-T5mEk4jx83NKro-40" style="edgeStyle=orthogonalEdgeStyle;rounded=0;orthogonalLoop=1;jettySize=auto;html=1;entryX=0;entryY=0.5;entryDx=0;entryDy=0;" edge="1" parent="1">
          <mxGeometry relative="1" as="geometry">
            <mxPoint x="1254" y="371.25" as="sourcePoint" />
            <mxPoint x="1302" y="371.25" as="targetPoint" />
          </mxGeometry>
        </mxCell>
        <mxCell id="e8W-_g6dRkkAk_Z5xhVP-39" value="binder_procs" style="text;whiteSpace=wrap;html=1;" parent="1" vertex="1">
          <mxGeometry x="1663.9966666666667" y="416.9966666666668" width="89" height="28" as="geometry" />
        </mxCell>
        <mxCell id="e8W-_g6dRkkAk_Z5xhVP-45" value="ServiceManager" style="html=1;strokeColor=#000000;" parent="1" vertex="1">
          <mxGeometry x="530" y="391" width="110" height="50" as="geometry" />
        </mxCell>
        <mxCell id="e8W-_g6dRkkAk_Z5xhVP-46" value="BnServiceManager" style="html=1;strokeColor=#000000;" parent="1" vertex="1">
          <mxGeometry x="530" y="296" width="110" height="50" as="geometry" />
        </mxCell>
        <mxCell id="e8W-_g6dRkkAk_Z5xhVP-47" value="Extends" style="endArrow=block;endSize=16;endFill=0;html=1;" parent="1" edge="1">
          <mxGeometry width="160" relative="1" as="geometry">
            <mxPoint x="581" y="394" as="sourcePoint" />
            <mxPoint x="581" y="348" as="targetPoint" />
          </mxGeometry>
        </mxCell>
        <mxCell id="e8W-_g6dRkkAk_Z5xhVP-63" style="edgeStyle=orthogonalEdgeStyle;rounded=0;orthogonalLoop=1;jettySize=auto;html=1;" parent="1" source="e8W-_g6dRkkAk_Z5xhVP-51" target="e8W-_g6dRkkAk_Z5xhVP-62" edge="1">
          <mxGeometry relative="1" as="geometry" />
        </mxCell>
        <mxCell id="e8W-_g6dRkkAk_Z5xhVP-64" value="rb_node" style="edgeLabel;html=1;align=center;verticalAlign=middle;resizable=0;points=[];" parent="e8W-_g6dRkkAk_Z5xhVP-63" vertex="1" connectable="0">
          <mxGeometry x="-0.2375" y="-1" relative="1" as="geometry">
            <mxPoint x="-8" y="-11" as="offset" />
          </mxGeometry>
        </mxCell>
        <mxCell id="e8W-_g6dRkkAk_Z5xhVP-72" style="edgeStyle=orthogonalEdgeStyle;rounded=0;orthogonalLoop=1;jettySize=auto;html=1;entryX=1;entryY=0.5;entryDx=0;entryDy=0;" parent="1" source="e8W-_g6dRkkAk_Z5xhVP-51" target="e8W-_g6dRkkAk_Z5xhVP-67" edge="1">
          <mxGeometry relative="1" as="geometry" />
        </mxCell>
        <mxCell id="e8W-_g6dRkkAk_Z5xhVP-73" value="ptr" style="edgeLabel;html=1;align=center;verticalAlign=middle;resizable=0;points=[];" parent="e8W-_g6dRkkAk_Z5xhVP-72" vertex="1" connectable="0">
          <mxGeometry x="-0.5323" y="1" relative="1" as="geometry">
            <mxPoint as="offset" />
          </mxGeometry>
        </mxCell>
        <mxCell id="e8W-_g6dRkkAk_Z5xhVP-51" value="binder_node" style="rounded=0;whiteSpace=wrap;html=1;strokeColor=#000000;" parent="1" vertex="1">
          <mxGeometry x="1181" y="559" width="102" height="43" as="geometry" />
        </mxCell>
        <mxCell id="e8W-_g6dRkkAk_Z5xhVP-56" style="edgeStyle=orthogonalEdgeStyle;rounded=0;orthogonalLoop=1;jettySize=auto;html=1;" parent="1" source="e8W-_g6dRkkAk_Z5xhVP-55" edge="1">
          <mxGeometry relative="1" as="geometry">
            <mxPoint x="1202" y="460" as="targetPoint" />
          </mxGeometry>
        </mxCell>
        <mxCell id="e8W-_g6dRkkAk_Z5xhVP-57" value="private_data" style="edgeLabel;html=1;align=center;verticalAlign=middle;resizable=0;points=[];" parent="e8W-_g6dRkkAk_Z5xhVP-56" vertex="1" connectable="0">
          <mxGeometry x="0.2151" relative="1" as="geometry">
            <mxPoint y="-13" as="offset" />
          </mxGeometry>
        </mxCell>
        <mxCell id="e8W-_g6dRkkAk_Z5xhVP-55" value="file" style="rounded=0;whiteSpace=wrap;html=1;strokeColor=#000000;" parent="1" vertex="1">
          <mxGeometry x="984" y="469.25" width="102" height="43" as="geometry" />
        </mxCell>
        <mxCell id="e8W-_g6dRkkAk_Z5xhVP-60" value="" style="endArrow=classic;html=1;" parent="1" edge="1">
          <mxGeometry width="50" height="50" relative="1" as="geometry">
            <mxPoint x="1227" y="560" as="sourcePoint" />
            <mxPoint x="1227" y="463" as="targetPoint" />
            <Array as="points" />
          </mxGeometry>
        </mxCell>
        <mxCell id="e8W-_g6dRkkAk_Z5xhVP-61" value="proc" style="edgeLabel;html=1;align=center;verticalAlign=middle;resizable=0;points=[];" parent="e8W-_g6dRkkAk_Z5xhVP-60" vertex="1" connectable="0">
          <mxGeometry x="0.18" y="-1" relative="1" as="geometry">
            <mxPoint y="1" as="offset" />
          </mxGeometry>
        </mxCell>
        <mxCell id="e8W-_g6dRkkAk_Z5xhVP-62" value="rb_tree" style="triangle;whiteSpace=wrap;html=1;strokeColor=#000000;rotation=0;" parent="1" vertex="1">
          <mxGeometry x="1044" y="540" width="60" height="80" as="geometry" />
        </mxCell>
        <mxCell id="e8W-_g6dRkkAk_Z5xhVP-66" value="flat_binder_object" style="swimlane;fontStyle=1;align=center;verticalAlign=top;childLayout=stackLayout;horizontal=1;startSize=26;horizontalStack=0;resizeParent=1;resizeParentMax=0;resizeLast=0;collapsible=1;marginBottom=0;strokeColor=#000000;" parent="1" vertex="1">
          <mxGeometry x="1042" y="648.25" width="160" height="86" as="geometry" />
        </mxCell>
        <mxCell id="e8W-_g6dRkkAk_Z5xhVP-67" value="binder_uintptr_t        binder" style="text;strokeColor=none;fillColor=none;align=left;verticalAlign=top;spacingLeft=4;spacingRight=4;overflow=hidden;rotatable=0;points=[[0,0.5],[1,0.5]];portConstraint=eastwest;" parent="e8W-_g6dRkkAk_Z5xhVP-66" vertex="1">
          <mxGeometry y="26" width="160" height="26" as="geometry" />
        </mxCell>
        <mxCell id="e8W-_g6dRkkAk_Z5xhVP-68" value="" style="line;strokeWidth=1;fillColor=none;align=left;verticalAlign=middle;spacingTop=-1;spacingLeft=3;spacingRight=3;rotatable=0;labelPosition=right;points=[];portConstraint=eastwest;" parent="e8W-_g6dRkkAk_Z5xhVP-66" vertex="1">
          <mxGeometry y="52" width="160" height="8" as="geometry" />
        </mxCell>
        <mxCell id="e8W-_g6dRkkAk_Z5xhVP-69" value="__u32                   handle" style="text;strokeColor=none;fillColor=none;align=left;verticalAlign=top;spacingLeft=4;spacingRight=4;overflow=hidden;rotatable=0;points=[[0,0.5],[1,0.5]];portConstraint=eastwest;" parent="e8W-_g6dRkkAk_Z5xhVP-66" vertex="1">
          <mxGeometry y="60" width="160" height="26" as="geometry" />
        </mxCell>
        <mxCell id="H-w7XV4eb11bhO1Xz3Ol-33" value="binder_proc" style="rounded=0;whiteSpace=wrap;html=1;strokeColor=#000000;" parent="1" vertex="1">
          <mxGeometry x="324" y="1306.5" width="102" height="43" as="geometry" />
        </mxCell>
        <mxCell id="H-w7XV4eb11bhO1Xz3Ol-34" value="binder_procs" style="text;whiteSpace=wrap;html=1;" parent="1" vertex="1">
          <mxGeometry x="162.99666666666673" y="1313.996666666667" width="89" height="28" as="geometry" />
        </mxCell>
        <mxCell id="H-w7XV4eb11bhO1Xz3Ol-39" value="" style="endArrow=classic;html=1;exitX=0;exitY=0.5;exitDx=0;exitDy=0;" parent="1" source="H-w7XV4eb11bhO1Xz3Ol-33" edge="1">
          <mxGeometry width="50" height="50" relative="1" as="geometry">
            <mxPoint x="388" y="1447" as="sourcePoint" />
            <mxPoint x="237" y="1328" as="targetPoint" />
          </mxGeometry>
        </mxCell>
        <mxCell id="H-w7XV4eb11bhO1Xz3Ol-40" value="proc_node" style="edgeLabel;html=1;align=center;verticalAlign=middle;resizable=0;points=[];" parent="H-w7XV4eb11bhO1Xz3Ol-39" vertex="1" connectable="0">
          <mxGeometry x="0.3295" y="3" relative="1" as="geometry">
            <mxPoint x="19" y="-11" as="offset" />
          </mxGeometry>
        </mxCell>
        <mxCell id="H-w7XV4eb11bhO1Xz3Ol-46" value="binder_node" style="rounded=0;whiteSpace=wrap;html=1;strokeColor=#000000;" parent="1" vertex="1">
          <mxGeometry x="324" y="1416" width="102" height="43" as="geometry" />
        </mxCell>
        <mxCell id="H-w7XV4eb11bhO1Xz3Ol-50" style="edgeStyle=orthogonalEdgeStyle;rounded=0;orthogonalLoop=1;jettySize=auto;html=1;" parent="1" source="H-w7XV4eb11bhO1Xz3Ol-52" target="H-w7XV4eb11bhO1Xz3Ol-33" edge="1">
          <mxGeometry relative="1" as="geometry" />
        </mxCell>
        <mxCell id="H-w7XV4eb11bhO1Xz3Ol-51" value="private_data" style="edgeLabel;html=1;align=center;verticalAlign=middle;resizable=0;points=[];" parent="H-w7XV4eb11bhO1Xz3Ol-50" vertex="1" connectable="0">
          <mxGeometry x="0.2151" relative="1" as="geometry">
            <mxPoint y="-13" as="offset" />
          </mxGeometry>
        </mxCell>
        <mxCell id="H-w7XV4eb11bhO1Xz3Ol-52" value="file" style="rounded=0;whiteSpace=wrap;html=1;strokeColor=#000000;" parent="1" vertex="1">
          <mxGeometry x="324" y="1193" width="102" height="43" as="geometry" />
        </mxCell>
        <mxCell id="H-w7XV4eb11bhO1Xz3Ol-53" value="" style="endArrow=classic;html=1;exitX=0.5;exitY=0;exitDx=0;exitDy=0;entryX=0.5;entryY=1;entryDx=0;entryDy=0;" parent="1" source="H-w7XV4eb11bhO1Xz3Ol-46" target="H-w7XV4eb11bhO1Xz3Ol-33" edge="1">
          <mxGeometry width="50" height="50" relative="1" as="geometry">
            <mxPoint x="641" y="1594" as="sourcePoint" />
            <mxPoint x="399" y="1351" as="targetPoint" />
            <Array as="points" />
          </mxGeometry>
        </mxCell>
        <mxCell id="H-w7XV4eb11bhO1Xz3Ol-54" value="proc" style="edgeLabel;html=1;align=center;verticalAlign=middle;resizable=0;points=[];" parent="H-w7XV4eb11bhO1Xz3Ol-53" vertex="1" connectable="0">
          <mxGeometry x="0.18" y="-1" relative="1" as="geometry">
            <mxPoint y="1" as="offset" />
          </mxGeometry>
        </mxCell>
        <mxCell id="H-w7XV4eb11bhO1Xz3Ol-62" style="edgeStyle=orthogonalEdgeStyle;rounded=0;orthogonalLoop=1;jettySize=auto;html=1;entryX=1;entryY=0.5;entryDx=0;entryDy=0;" parent="1" source="H-w7XV4eb11bhO1Xz3Ol-61" target="H-w7XV4eb11bhO1Xz3Ol-33" edge="1">
          <mxGeometry relative="1" as="geometry" />
        </mxCell>
        <mxCell id="H-w7XV4eb11bhO1Xz3Ol-63" value="proc" style="edgeLabel;html=1;align=center;verticalAlign=middle;resizable=0;points=[];" parent="H-w7XV4eb11bhO1Xz3Ol-62" vertex="1" connectable="0">
          <mxGeometry x="0.2943" y="1" relative="1" as="geometry">
            <mxPoint x="7" y="-12" as="offset" />
          </mxGeometry>
        </mxCell>
        <mxCell id="H-w7XV4eb11bhO1Xz3Ol-65" style="edgeStyle=orthogonalEdgeStyle;rounded=0;orthogonalLoop=1;jettySize=auto;html=1;entryX=0;entryY=0.5;entryDx=0;entryDy=0;" parent="1" source="H-w7XV4eb11bhO1Xz3Ol-61" target="H-w7XV4eb11bhO1Xz3Ol-64" edge="1">
          <mxGeometry relative="1" as="geometry" />
        </mxCell>
        <mxCell id="H-w7XV4eb11bhO1Xz3Ol-66" value="transaction_stack" style="edgeLabel;html=1;align=center;verticalAlign=middle;resizable=0;points=[];" parent="H-w7XV4eb11bhO1Xz3Ol-65" vertex="1" connectable="0">
          <mxGeometry x="-0.3118" y="-1" relative="1" as="geometry">
            <mxPoint x="17" y="-12" as="offset" />
          </mxGeometry>
        </mxCell>
        <mxCell id="H-w7XV4eb11bhO1Xz3Ol-68" style="edgeStyle=orthogonalEdgeStyle;rounded=0;orthogonalLoop=1;jettySize=auto;html=1;entryX=0.5;entryY=1;entryDx=0;entryDy=0;" parent="1" source="H-w7XV4eb11bhO1Xz3Ol-61" target="H-w7XV4eb11bhO1Xz3Ol-67" edge="1">
          <mxGeometry relative="1" as="geometry" />
        </mxCell>
        <mxCell id="H-w7XV4eb11bhO1Xz3Ol-69" value="task" style="edgeLabel;html=1;align=center;verticalAlign=middle;resizable=0;points=[];" parent="H-w7XV4eb11bhO1Xz3Ol-68" vertex="1" connectable="0">
          <mxGeometry x="-0.2699" relative="1" as="geometry">
            <mxPoint y="-20" as="offset" />
          </mxGeometry>
        </mxCell>
        <mxCell id="H-w7XV4eb11bhO1Xz3Ol-61" value="binder_thread" style="rounded=0;whiteSpace=wrap;html=1;strokeColor=#000000;" parent="1" vertex="1">
          <mxGeometry x="512" y="1306.5" width="102" height="43" as="geometry" />
        </mxCell>
        <mxCell id="H-w7XV4eb11bhO1Xz3Ol-64" value="binder_transaction" style="rounded=0;whiteSpace=wrap;html=1;strokeColor=#000000;" parent="1" vertex="1">
          <mxGeometry x="725" y="1306.5" width="102" height="43" as="geometry" />
        </mxCell>
        <mxCell id="H-w7XV4eb11bhO1Xz3Ol-67" value="task_struct" style="rounded=0;whiteSpace=wrap;html=1;strokeColor=#000000;" parent="1" vertex="1">
          <mxGeometry x="512" y="1191" width="102" height="43" as="geometry" />
        </mxCell>
        <mxCell id="H-w7XV4eb11bhO1Xz3Ol-71" style="edgeStyle=orthogonalEdgeStyle;rounded=0;orthogonalLoop=1;jettySize=auto;html=1;entryX=0.5;entryY=1;entryDx=0;entryDy=0;" parent="1" source="H-w7XV4eb11bhO1Xz3Ol-70" target="H-w7XV4eb11bhO1Xz3Ol-46" edge="1">
          <mxGeometry relative="1" as="geometry" />
        </mxCell>
        <mxCell id="H-w7XV4eb11bhO1Xz3Ol-72" value="node" style="edgeLabel;html=1;align=center;verticalAlign=middle;resizable=0;points=[];" parent="H-w7XV4eb11bhO1Xz3Ol-71" vertex="1" connectable="0">
          <mxGeometry x="0.2766" relative="1" as="geometry">
            <mxPoint as="offset" />
          </mxGeometry>
        </mxCell>
        <mxCell id="H-w7XV4eb11bhO1Xz3Ol-70" value="binder_ref" style="rounded=0;whiteSpace=wrap;html=1;strokeColor=#000000;" parent="1" vertex="1">
          <mxGeometry x="324" y="1506" width="102" height="43" as="geometry" />
        </mxCell>
        <mxCell id="H-w7XV4eb11bhO1Xz3Ol-73" value="rb_tree" style="triangle;whiteSpace=wrap;html=1;strokeColor=#000000;rotation=-90;" parent="1" vertex="1">
          <mxGeometry x="170" y="1368" width="60" height="80" as="geometry" />
        </mxCell>
        <mxCell id="H-w7XV4eb11bhO1Xz3Ol-74" value="" style="endArrow=classic;html=1;entryX=1;entryY=0.5;entryDx=0;entryDy=0;exitX=0.008;exitY=0.859;exitDx=0;exitDy=0;exitPerimeter=0;" parent="1" source="H-w7XV4eb11bhO1Xz3Ol-33" target="H-w7XV4eb11bhO1Xz3Ol-73" edge="1">
          <mxGeometry width="50" height="50" relative="1" as="geometry">
            <mxPoint x="428" y="1342" as="sourcePoint" />
            <mxPoint x="517" y="1389" as="targetPoint" />
            <Array as="points" />
          </mxGeometry>
        </mxCell>
        <mxCell id="H-w7XV4eb11bhO1Xz3Ol-75" value="refs_by_desc" style="edgeLabel;html=1;align=center;verticalAlign=middle;resizable=0;points=[];" parent="H-w7XV4eb11bhO1Xz3Ol-74" vertex="1" connectable="0">
          <mxGeometry x="-0.6756" y="-2" relative="1" as="geometry">
            <mxPoint x="-18" y="3" as="offset" />
          </mxGeometry>
        </mxCell>
        <mxCell id="H-w7XV4eb11bhO1Xz3Ol-76" value="" style="endArrow=classic;html=1;exitX=0;exitY=0.5;exitDx=0;exitDy=0;entryX=0;entryY=0.5;entryDx=0;entryDy=0;" parent="1" source="H-w7XV4eb11bhO1Xz3Ol-73" target="H-w7XV4eb11bhO1Xz3Ol-70" edge="1">
          <mxGeometry width="50" height="50" relative="1" as="geometry">
            <mxPoint x="188" y="1564" as="sourcePoint" />
            <mxPoint x="238" y="1514" as="targetPoint" />
          </mxGeometry>
        </mxCell>
        <mxCell id="7_N4U-T5mEk4jx83NKro-2" value="binder_transaction_log" style="swimlane;fontStyle=1;align=center;verticalAlign=top;childLayout=stackLayout;horizontal=1;startSize=26;horizontalStack=0;resizeParent=1;resizeParentMax=0;resizeLast=0;collapsible=1;marginBottom=0;" vertex="1" parent="1">
          <mxGeometry x="1038" y="30" width="256" height="86" as="geometry" />
        </mxCell>
        <mxCell id="7_N4U-T5mEk4jx83NKro-3" value="atomic_t cur" style="text;strokeColor=none;fillColor=none;align=left;verticalAlign=top;spacingLeft=4;spacingRight=4;overflow=hidden;rotatable=0;points=[[0,0.5],[1,0.5]];portConstraint=eastwest;" vertex="1" parent="7_N4U-T5mEk4jx83NKro-2">
          <mxGeometry y="26" width="256" height="26" as="geometry" />
        </mxCell>
        <mxCell id="7_N4U-T5mEk4jx83NKro-4" value="" style="line;strokeWidth=1;fillColor=none;align=left;verticalAlign=middle;spacingTop=-1;spacingLeft=3;spacingRight=3;rotatable=0;labelPosition=right;points=[];portConstraint=eastwest;" vertex="1" parent="7_N4U-T5mEk4jx83NKro-2">
          <mxGeometry y="52" width="256" height="8" as="geometry" />
        </mxCell>
        <mxCell id="7_N4U-T5mEk4jx83NKro-5" value="binder_transaction_log_entry entry[32]" style="text;strokeColor=none;fillColor=none;align=left;verticalAlign=top;spacingLeft=4;spacingRight=4;overflow=hidden;rotatable=0;points=[[0,0.5],[1,0.5]];portConstraint=eastwest;" vertex="1" parent="7_N4U-T5mEk4jx83NKro-2">
          <mxGeometry y="60" width="256" height="26" as="geometry" />
        </mxCell>
        <mxCell id="7_N4U-T5mEk4jx83NKro-6" value="binder_transaction_log_entry" style="html=1;" vertex="1" parent="1">
          <mxGeometry x="1363" y="78" width="196" height="50" as="geometry" />
        </mxCell>
        <mxCell id="7_N4U-T5mEk4jx83NKro-7" style="edgeStyle=orthogonalEdgeStyle;rounded=0;orthogonalLoop=1;jettySize=auto;html=1;entryX=0;entryY=0.5;entryDx=0;entryDy=0;" edge="1" parent="1" source="7_N4U-T5mEk4jx83NKro-5" target="7_N4U-T5mEk4jx83NKro-6">
          <mxGeometry relative="1" as="geometry" />
        </mxCell>
        <mxCell id="7_N4U-T5mEk4jx83NKro-8" value="binder_devices" style="html=1;" vertex="1" parent="1">
          <mxGeometry x="1711" y="216" width="110" height="50" as="geometry" />
        </mxCell>
        <mxCell id="7_N4U-T5mEk4jx83NKro-13" value="binder_device" style="swimlane;fontStyle=1;align=center;verticalAlign=top;childLayout=stackLayout;horizontal=1;startSize=26;horizontalStack=0;resizeParent=1;resizeParentMax=0;resizeLast=0;collapsible=1;marginBottom=0;" vertex="1" parent="1">
          <mxGeometry x="1087" y="167" width="161" height="86" as="geometry" />
        </mxCell>
        <mxCell id="7_N4U-T5mEk4jx83NKro-14" value="binder_context context" style="text;strokeColor=none;fillColor=none;align=left;verticalAlign=top;spacingLeft=4;spacingRight=4;overflow=hidden;rotatable=0;points=[[0,0.5],[1,0.5]];portConstraint=eastwest;" vertex="1" parent="7_N4U-T5mEk4jx83NKro-13">
          <mxGeometry y="26" width="161" height="26" as="geometry" />
        </mxCell>
        <mxCell id="7_N4U-T5mEk4jx83NKro-15" value="" style="line;strokeWidth=1;fillColor=none;align=left;verticalAlign=middle;spacingTop=-1;spacingLeft=3;spacingRight=3;rotatable=0;labelPosition=right;points=[];portConstraint=eastwest;" vertex="1" parent="7_N4U-T5mEk4jx83NKro-13">
          <mxGeometry y="52" width="161" height="8" as="geometry" />
        </mxCell>
        <mxCell id="7_N4U-T5mEk4jx83NKro-16" value="hlist_node hlist" style="text;strokeColor=none;fillColor=none;align=left;verticalAlign=top;spacingLeft=4;spacingRight=4;overflow=hidden;rotatable=0;points=[[0,0.5],[1,0.5]];portConstraint=eastwest;" vertex="1" parent="7_N4U-T5mEk4jx83NKro-13">
          <mxGeometry y="60" width="161" height="26" as="geometry" />
        </mxCell>
        <mxCell id="7_N4U-T5mEk4jx83NKro-17" value="binder_device" style="swimlane;fontStyle=1;align=center;verticalAlign=top;childLayout=stackLayout;horizontal=1;startSize=26;horizontalStack=0;resizeParent=1;resizeParentMax=0;resizeLast=0;collapsible=1;marginBottom=0;" vertex="1" parent="1">
          <mxGeometry x="1308" y="167" width="160" height="86" as="geometry" />
        </mxCell>
        <mxCell id="7_N4U-T5mEk4jx83NKro-18" value="binder_context context" style="text;strokeColor=none;fillColor=none;align=left;verticalAlign=top;spacingLeft=4;spacingRight=4;overflow=hidden;rotatable=0;points=[[0,0.5],[1,0.5]];portConstraint=eastwest;" vertex="1" parent="7_N4U-T5mEk4jx83NKro-17">
          <mxGeometry y="26" width="160" height="26" as="geometry" />
        </mxCell>
        <mxCell id="7_N4U-T5mEk4jx83NKro-19" value="" style="line;strokeWidth=1;fillColor=none;align=left;verticalAlign=middle;spacingTop=-1;spacingLeft=3;spacingRight=3;rotatable=0;labelPosition=right;points=[];portConstraint=eastwest;" vertex="1" parent="7_N4U-T5mEk4jx83NKro-17">
          <mxGeometry y="52" width="160" height="8" as="geometry" />
        </mxCell>
        <mxCell id="7_N4U-T5mEk4jx83NKro-20" value="hlist_node hlist" style="text;strokeColor=none;fillColor=none;align=left;verticalAlign=top;spacingLeft=4;spacingRight=4;overflow=hidden;rotatable=0;points=[[0,0.5],[1,0.5]];portConstraint=eastwest;" vertex="1" parent="7_N4U-T5mEk4jx83NKro-17">
          <mxGeometry y="60" width="160" height="26" as="geometry" />
        </mxCell>
        <mxCell id="7_N4U-T5mEk4jx83NKro-21" value="binder_device" style="swimlane;fontStyle=1;align=center;verticalAlign=top;childLayout=stackLayout;horizontal=1;startSize=26;horizontalStack=0;resizeParent=1;resizeParentMax=0;resizeLast=0;collapsible=1;marginBottom=0;" vertex="1" parent="1">
          <mxGeometry x="1504" y="168" width="160" height="86" as="geometry" />
        </mxCell>
        <mxCell id="7_N4U-T5mEk4jx83NKro-22" value="binder_context context" style="text;strokeColor=none;fillColor=none;align=left;verticalAlign=top;spacingLeft=4;spacingRight=4;overflow=hidden;rotatable=0;points=[[0,0.5],[1,0.5]];portConstraint=eastwest;" vertex="1" parent="7_N4U-T5mEk4jx83NKro-21">
          <mxGeometry y="26" width="160" height="26" as="geometry" />
        </mxCell>
        <mxCell id="7_N4U-T5mEk4jx83NKro-23" value="" style="line;strokeWidth=1;fillColor=none;align=left;verticalAlign=middle;spacingTop=-1;spacingLeft=3;spacingRight=3;rotatable=0;labelPosition=right;points=[];portConstraint=eastwest;" vertex="1" parent="7_N4U-T5mEk4jx83NKro-21">
          <mxGeometry y="52" width="160" height="8" as="geometry" />
        </mxCell>
        <mxCell id="7_N4U-T5mEk4jx83NKro-24" value="hlist_node hlist" style="text;strokeColor=none;fillColor=none;align=left;verticalAlign=top;spacingLeft=4;spacingRight=4;overflow=hidden;rotatable=0;points=[[0,0.5],[1,0.5]];portConstraint=eastwest;" vertex="1" parent="7_N4U-T5mEk4jx83NKro-21">
          <mxGeometry y="60" width="160" height="26" as="geometry" />
        </mxCell>
        <mxCell id="7_N4U-T5mEk4jx83NKro-28" value="task_struct" style="swimlane;fontStyle=1;align=center;verticalAlign=top;childLayout=stackLayout;horizontal=1;startSize=26;horizontalStack=0;resizeParent=1;resizeParentMax=0;resizeLast=0;collapsible=1;marginBottom=0;" vertex="1" parent="1">
          <mxGeometry x="1637" y="285.75" width="160" height="60" as="geometry" />
        </mxCell>
        <mxCell id="7_N4U-T5mEk4jx83NKro-29" value="group_leader" style="text;strokeColor=none;fillColor=none;align=left;verticalAlign=top;spacingLeft=4;spacingRight=4;overflow=hidden;rotatable=0;points=[[0,0.5],[1,0.5]];portConstraint=eastwest;" vertex="1" parent="7_N4U-T5mEk4jx83NKro-28">
          <mxGeometry y="26" width="160" height="26" as="geometry" />
        </mxCell>
        <mxCell id="7_N4U-T5mEk4jx83NKro-30" value="" style="line;strokeWidth=1;fillColor=none;align=left;verticalAlign=middle;spacingTop=-1;spacingLeft=3;spacingRight=3;rotatable=0;labelPosition=right;points=[];portConstraint=eastwest;" vertex="1" parent="7_N4U-T5mEk4jx83NKro-28">
          <mxGeometry y="52" width="160" height="8" as="geometry" />
        </mxCell>
        <mxCell id="7_N4U-T5mEk4jx83NKro-36" style="edgeStyle=orthogonalEdgeStyle;rounded=0;orthogonalLoop=1;jettySize=auto;html=1;entryX=0;entryY=0.5;entryDx=0;entryDy=0;" edge="1" parent="1" source="7_N4U-T5mEk4jx83NKro-16" target="7_N4U-T5mEk4jx83NKro-20">
          <mxGeometry relative="1" as="geometry" />
        </mxCell>
        <mxCell id="7_N4U-T5mEk4jx83NKro-37" style="edgeStyle=orthogonalEdgeStyle;rounded=0;orthogonalLoop=1;jettySize=auto;html=1;" edge="1" parent="1" source="7_N4U-T5mEk4jx83NKro-20">
          <mxGeometry relative="1" as="geometry">
            <mxPoint x="1496.5999755859375" y="240" as="targetPoint" />
          </mxGeometry>
        </mxCell>
        <mxCell id="7_N4U-T5mEk4jx83NKro-38" style="edgeStyle=orthogonalEdgeStyle;rounded=0;orthogonalLoop=1;jettySize=auto;html=1;entryX=0;entryY=0.5;entryDx=0;entryDy=0;" edge="1" parent="1" source="7_N4U-T5mEk4jx83NKro-24" target="7_N4U-T5mEk4jx83NKro-8">
          <mxGeometry relative="1" as="geometry" />
        </mxCell>
        <mxCell id="7_N4U-T5mEk4jx83NKro-43" value="binder_proc" style="swimlane;fontStyle=1;align=center;verticalAlign=top;childLayout=stackLayout;horizontal=1;startSize=26;horizontalStack=0;resizeParent=1;resizeParentMax=0;resizeLast=0;collapsible=1;marginBottom=0;" vertex="1" parent="1">
          <mxGeometry x="1152" y="346" width="160" height="60" as="geometry" />
        </mxCell>
        <mxCell id="7_N4U-T5mEk4jx83NKro-44" value="binder_alloc" style="text;strokeColor=none;fillColor=none;align=left;verticalAlign=top;spacingLeft=4;spacingRight=4;overflow=hidden;rotatable=0;points=[[0,0.5],[1,0.5]];portConstraint=eastwest;" vertex="1" parent="7_N4U-T5mEk4jx83NKro-43">
          <mxGeometry y="26" width="160" height="26" as="geometry" />
        </mxCell>
        <mxCell id="7_N4U-T5mEk4jx83NKro-45" value="" style="line;strokeWidth=1;fillColor=none;align=left;verticalAlign=middle;spacingTop=-1;spacingLeft=3;spacingRight=3;rotatable=0;labelPosition=right;points=[];portConstraint=eastwest;" vertex="1" parent="7_N4U-T5mEk4jx83NKro-43">
          <mxGeometry y="52" width="160" height="8" as="geometry" />
        </mxCell>
      </root>
    </mxGraphModel>
  </diagram>
</mxfile>
